<?xml version="1.0" standalone="no"?>
<!DOCTYPE svg PUBLIC "-//W3C//DTD SVG 20010904//EN"
 "http://www.w3.org/TR/2001/REC-SVG-20010904/DTD/svg10.dtd">
<svg version="1.0" xmlns="http://www.w3.org/2000/svg"
 width="1188.000000pt" height="1188.000000pt" viewBox="0 0 1188.000000 1188.000000"
 preserveAspectRatio="xMidYMid meet">
<metadata>
Created by potrace 1.11, written by Peter Selinger 2001-2013
</metadata>
<g transform="translate(0.000000,1188.000000) scale(0.100000,-0.100000)"
fill="#000000" stroke="none">
<path d="M4419 8166 c-2 -2 -31 -7 -64 -11 -202 -21 -456 -125 -648 -265 -60
-44 -222 -201 -269 -260 -140 -178 -256 -435 -284 -630 -3 -19 -7 -42 -10 -50
-3 -8 -8 -62 -10 -120 -3 -58 -7 -111 -9 -117 -2 -7 -1 -13 3 -13 4 0 7 -23 6
-52 0 -29 3 -70 7 -93 4 -22 9 -56 12 -75 20 -141 112 -378 191 -493 14 -21
26 -40 26 -42 0 -3 21 -33 47 -67 83 -110 318 -328 353 -328 5 0 10 -4 10 -10
0 -5 6 -10 14 -10 8 0 16 -4 18 -8 3 -8 184 -100 233 -118 76 -29 158 -52 245
-70 82 -17 394 -25 470 -12 19 4 51 9 70 13 325 57 658 264 870 540 128 167
243 426 267 605 3 19 8 52 13 72 10 49 11 311 0 368 -4 25 -10 61 -13 80 -18
133 -111 375 -188 488 -16 24 -29 45 -29 48 0 9 -105 140 -146 181 -23 23 -39
45 -36 48 3 3 0 5 -7 5 -6 0 -26 15 -44 33 -41 41 -154 127 -167 127 -6 0 -10
3 -10 8 0 8 -7 12 -86 52 -27 14 -52 30 -56 35 -4 6 -8 6 -8 1 0 -4 -10 -2
-23 7 -30 19 -167 73 -212 83 -5 1 -30 7 -55 13 -25 7 -55 14 -67 16 -13 3
-35 8 -50 11 -34 7 -357 16 -364 10z"/>
</g>
</svg>
